<svg width="642" height="609" viewBox="0 0 642 609" fill="none" xmlns="http://www.w3.org/2000/svg">
<g id="undraw_Connected_re_lmq2 1" clip-path="url(#clip0)">
<g id="person-two">
<path id="Vector" d="M641.993 117.278C641.806 135.595 637.277 153.606 628.78 169.834C620.283 186.061 608.058 200.043 593.11 210.63C592.85 210.81 592.58 211 592.31 211.19C592.03 211.39 591.74 211.59 591.45 211.78C589.77 212.94 588.057 214.05 586.31 215.11C583.85 216.61 581.333 218.02 578.76 219.34C578.68 219.38 578.59 219.42 578.51 219.46C577.03 220.22 575.537 220.94 574.03 221.62C573.98 221.64 573.94 221.66 573.89 221.68C573.54 221.84 573.17 222.01 572.81 222.16C570.02 223.4 567.17 224.53 564.27 225.53C561.8 226.4 559.293 227.18 556.75 227.87C551.549 229.305 546.252 230.367 540.9 231.05C536.336 231.637 531.741 231.951 527.14 231.99C526.76 232 526.38 232 526 232C523.49 232 520.99 231.92 518.52 231.76C516.36 231.62 514.22 231.43 512.1 231.17C508.83 230.78 505.6 230.26 502.42 229.58C502.28 229.56 502.14 229.53 502 229.5C501.89 229.48 501.77 229.45 501.66 229.43C498.46 228.76 495.31 227.94 492.22 227C489.31 226.12 486.453 225.127 483.65 224.02C482.93 223.74 482.22 223.46 481.51 223.16C479.74 222.42 477.99 221.65 476.27 220.82C475.77 220.59 475.28 220.35 474.79 220.11C473.13 219.3 471.49 218.45 469.89 217.55C467.96 216.48 466.063 215.357 464.2 214.18C461.85 212.7 459.55 211.14 457.32 209.49C437.507 194.933 422.831 174.458 415.41 151.019C407.99 127.58 408.208 102.39 416.033 79.0829C423.858 55.7759 438.885 35.5576 458.947 21.3456C479.008 7.13366 503.067 -0.337044 527.65 0.0115451C591.258 0.895095 642.679 53.6674 641.993 117.278Z" fill="#F1F1F1"/>
<path id="Vector_2" d="M501.66 229.43C498.46 228.76 495.31 227.94 492.22 227L502.83 161.21L513.82 160.87L533.75 160.24L543.97 159.92C543.97 159.92 551.22 191.78 556.75 227.87C551.549 229.305 546.252 230.367 540.9 231.05C536.336 231.637 531.741 231.951 527.14 231.99C526.76 232 526.38 232 526 232C523.49 232 520.99 231.92 518.52 231.76C516.36 231.62 514.22 231.43 512.1 231.17C508.83 230.78 505.6 230.26 502.42 229.58C502.28 229.56 502.14 229.53 502 229.5C501.89 229.48 501.77 229.45 501.66 229.43Z" fill="#CBCBCB"/>
<path id="Vector_3" d="M502.42 229.58C502.28 229.56 502.14 229.53 502 229.5C501.89 229.48 501.77 229.45 501.66 229.43C498.46 228.76 495.31 227.94 492.22 227C489.31 226.12 486.453 225.127 483.65 224.02C482.93 223.74 482.22 223.46 481.51 223.16C479.74 222.42 477.99 221.65 476.27 220.82C475.77 220.59 475.28 220.35 474.79 220.11L473.91 170.85L500.91 159.28C500.91 159.28 501 160 513.82 160.87C516.26 168.83 502.42 229.58 502.42 229.58Z" fill="#2F2E41"/>
<path id="Vector_4" d="M583.12 168.52L578.03 195.27L578.51 219.46C577.03 220.22 575.537 220.94 574.03 221.62C573.98 221.64 573.94 221.66 573.89 221.68C573.54 221.84 573.17 222.01 572.81 222.16C570.02 223.4 567.17 224.53 564.27 225.53C561.8 226.4 559.293 227.18 556.75 227.87C551.549 229.305 546.252 230.367 540.9 231.05C536.336 231.637 531.741 231.951 527.14 231.99L526.61 189.12C525.49 175.3 529.2 166.16 533.75 160.24C558 157 557.46 156.71 557.46 156.71L583.17 168.28L583.12 168.52Z" fill="#2F2E41"/>
<path id="Vector_5" d="M485.48 174.71L483.65 224.02C482.93 223.74 482.22 223.46 481.51 223.16C479.74 222.42 477.99 221.65 476.27 220.82C475.77 220.59 475.28 220.35 474.79 220.11C473.13 219.3 471.49 218.45 469.89 217.55C467.96 216.48 466.063 215.357 464.2 214.18L473.91 170.85L485.48 174.71Z" fill="#2F2E41"/>
<path id="Vector_6" d="M593.11 210.63C592.85 210.81 592.58 211 592.31 211.19C592.03 211.39 591.74 211.59 591.45 211.78C589.77 212.94 588.057 214.05 586.31 215.11C583.85 216.61 581.333 218.02 578.76 219.34C578.68 219.38 578.59 219.42 578.51 219.46C576.985 220.243 575.446 220.984 573.893 221.682L573.89 221.68L572.06 172.2L583.12 168.52L583.63 168.35L593.11 210.63Z" fill="#2F2E41"/>
<path id="Vector_7" d="M553.6 122.73C558.045 107.571 549.39 91.6888 534.271 87.256C519.151 82.8232 503.291 91.5183 498.847 106.677C494.403 121.836 503.057 137.718 518.177 142.151C533.296 146.584 549.156 137.888 553.6 122.73Z" fill="#9F616A"/>
<path id="Vector_8" d="M497.492 121.875V110.744C497.492 110.744 488.515 100.171 498.39 97.5081C498.39 97.5081 501.083 70.8763 524.422 83.3045C524.422 83.3045 556.738 77.9781 553.147 96.6204C553.147 96.6204 561.226 91.7535 558.533 104.182L553.325 124.201C553.325 124.201 555.841 110.977 547.761 109.201L543.273 106.538C543.273 106.538 530.706 118.966 511.855 103.875C511.855 103.875 503.776 101.947 504.673 109.936C505.571 117.926 497.492 121.875 497.492 121.875Z" fill="#2F2E41"/>
<path id="Vector_9" d="M526 254.358C540.6 254.358 552.436 242.522 552.436 227.921C552.436 213.321 540.6 201.485 526 201.485C511.4 201.485 499.564 213.321 499.564 227.921C499.564 242.522 511.4 254.358 526 254.358Z" fill="#6C63FF"/>
<path id="Vector_10" d="M523.481 239.081L515.568 228.907L520.17 225.328L523.916 230.145L536.573 216.785L540.805 220.794L523.481 239.081Z" fill="white"/>
</g>
<g id="person-one">
<path id="Vector_11" d="M232 116C232.014 134.699 227.502 153.123 218.849 169.699C210.196 186.276 197.66 200.511 182.31 211.19C177.987 214.216 173.459 216.939 168.76 219.34C167.2 220.14 165.63 220.9 164.03 221.62C162.59 222.28 161.14 222.9 159.67 223.49C141.437 230.873 121.631 233.515 102.1 231.17C98.7202 230.77 95.3835 230.22 92.0899 229.52C91.9502 229.49 91.7998 229.46 91.6602 229.43C84.763 227.971 78.0169 225.872 71.5098 223.16C52.1105 215.107 35.2615 201.939 22.7603 185.06C10.2592 168.181 2.57499 148.225 0.527622 127.321C-1.51974 106.416 2.14654 85.3486 11.1353 66.3649C20.124 47.3813 34.098 31.1941 51.5662 19.5305C69.0344 7.86692 89.3414 1.16455 110.321 0.138522C131.3 -0.887506 152.164 3.8013 170.687 13.7047C189.21 23.608 204.697 38.3544 215.495 56.3703C226.293 74.3862 231.998 94.9958 232 116V116Z" fill="#F1F1F1"/>
<path id="Vector_12" d="M137.36 94.35C137.26 94.23 137.15 94.12 137.04 94.01C130.842 87.752 122.426 84.1916 113.619 84.1017C104.811 84.0118 96.3243 87.3998 90 93.53C89.9302 93.59 89.8702 93.65 89.8101 93.71C89.73 93.78 89.6602 93.8499 89.5899 93.92C86.4754 97.0267 84.0048 100.718 82.3197 104.781C80.6346 108.845 79.7682 113.201 79.7701 117.6V138.6C79.7718 139.793 80.2465 140.936 81.0901 141.78C81.9336 142.624 83.0771 143.098 84.2701 143.1H142.27C143.463 143.098 144.607 142.624 145.45 141.78C146.294 140.936 146.768 139.793 146.77 138.6V117.6C146.778 108.921 143.403 100.58 137.36 94.35V94.35Z" fill="#2F2E41"/>
<path id="Vector_13" d="M114.614 142.892C128.179 142.892 139.175 131.896 139.175 118.331C139.175 104.766 128.179 93.7699 114.614 93.7699C101.049 93.7699 90.0531 104.766 90.0531 118.331C90.0531 131.896 101.049 142.892 114.614 142.892Z" fill="#FFB7B7"/>
<path id="Vector_14" d="M140.43 116.24L137.53 95.98C137.441 95.358 137.124 94.7915 136.64 94.39C136.477 94.2593 136.299 94.1485 136.11 94.06C121.26 87.11 106.2 87.11 91.3501 94.04C91.1519 94.1316 90.9668 94.2493 90.7998 94.39C90.7402 94.44 90.6802 94.5 90.6201 94.56C90.2232 94.97 89.9765 95.5021 89.9199 96.07L87.98 116.36C87.9473 116.707 87.9873 117.057 88.0975 117.387C88.2078 117.718 88.3858 118.022 88.6201 118.28C88.9978 118.696 89.5055 118.971 90.0601 119.06C90.1949 119.089 90.3324 119.102 90.4702 119.1H95.3901C95.8658 119.098 96.3313 118.962 96.7329 118.708C97.1346 118.453 97.456 118.09 97.6601 117.66L99.79 113.1C99.9263 112.804 100.155 112.561 100.442 112.408C100.729 112.255 101.059 112.199 101.38 112.25C101.702 112.301 101.998 112.456 102.223 112.69C102.449 112.925 102.592 113.227 102.63 113.55L103.05 116.91C103.128 117.514 103.422 118.068 103.878 118.471C104.335 118.874 104.922 119.097 105.53 119.1H137.96C138.384 119.102 138.802 118.992 139.17 118.78C139.426 118.641 139.656 118.458 139.85 118.24C140.085 117.968 140.258 117.648 140.358 117.303C140.458 116.958 140.483 116.595 140.43 116.24V116.24Z" fill="#2F2E41"/>
<path id="Vector_15" d="M175.35 187.89L182.31 211.19C177.987 214.216 173.459 216.939 168.76 219.34C167.2 220.14 165.63 220.9 164.03 221.62L156.82 190.71L154.02 178.72L172.02 176.72L175.35 187.89Z" fill="#FFB7B7"/>
<path id="Vector_16" d="M92.52 184.02L91.9199 215.5L91.6602 229.43C84.7629 227.971 78.0169 225.872 71.5098 223.16L73.8999 193.34L74.5 185.82L92.52 184.02Z" fill="#FFB7B7"/>
<path id="Vector_17" d="M175.35 187.89L157.27 190.6L157.49 193.57L159.67 223.49C141.437 230.873 121.631 233.515 102.1 231.17C98.7202 230.77 95.3835 230.22 92.0898 229.52C93.5698 223.3 94.8501 217.7 93.27 216.6C92.7939 216.267 92.3427 215.899 91.9199 215.5C84.5498 208.47 87.27 192.6 87.27 192.6L73.8999 193.34L69.2701 193.6C69.2701 193.6 71.2701 161.6 80.2701 161.6H91.2701L144.27 156.6C144.27 156.6 159.27 151.6 163.27 158.6C165.37 162.27 169.11 170.05 172.2 176.63C175 182.61 177.27 187.6 177.27 187.6L175.35 187.89Z" fill="#2F2E41"/>
<path id="Vector_18" d="M116 256.421C130.6 256.421 142.436 244.585 142.436 229.984C142.436 215.384 130.6 203.548 116 203.548C101.4 203.548 89.5637 215.384 89.5637 229.984C89.5637 244.585 101.4 256.421 116 256.421Z" fill="#6C63FF"/>
<path id="Vector_19" d="M113.481 241.144L105.568 230.97L110.17 227.391L113.916 232.208L126.573 218.848L130.805 222.857L113.481 241.144Z" fill="white"/>
</g>
<g id="person-three">
<path id="Vector_20" d="M437 466C437.014 484.699 432.502 503.123 423.849 519.699C415.196 536.276 402.66 550.511 387.31 561.19C387.03 561.39 386.74 561.59 386.45 561.78C384.77 562.94 383.057 564.05 381.31 565.11C378.85 566.61 376.333 568.02 373.76 569.34C372.2 570.14 370.63 570.9 369.03 571.62C368.63 571.8 368.22 571.99 367.81 572.16C365.02 573.4 362.17 574.53 359.27 575.53C351.696 578.186 343.862 580.036 335.9 581.05C330.959 581.685 325.982 582.003 321 582C318.49 582 315.99 581.92 313.52 581.76C311.36 581.62 309.22 581.43 307.1 581.17C303.69 580.76 300.32 580.21 297 579.5C296.89 579.48 296.77 579.45 296.66 579.43C289.763 577.971 283.017 575.872 276.51 573.16C274.74 572.42 272.99 571.65 271.27 570.82C269.1 569.8 266.973 568.71 264.89 567.55C246.985 557.658 232.014 543.207 221.495 525.662C210.977 508.118 205.284 488.104 204.994 467.65C204.705 447.196 209.829 427.029 219.847 409.194C229.866 391.359 244.422 376.49 262.039 366.095C279.657 355.7 299.711 350.148 320.166 350.003C340.622 349.857 360.752 355.123 378.516 365.267C396.28 375.41 411.046 390.071 421.317 407.761C431.588 425.452 436.998 445.544 437 466V466Z" fill="#F1F1F1"/>
<path id="Vector_21" d="M317.813 494.589C332.119 494.589 343.716 482.991 343.716 468.686C343.716 454.38 332.119 442.783 317.813 442.783C303.508 442.783 291.91 454.38 291.91 468.686C291.91 482.991 303.508 494.589 317.813 494.589Z" fill="#FFB8B8"/>
<path id="Vector_22" d="M307.1 581.17C303.69 580.76 300.32 580.21 297 579.5L300.15 508.62L300.6 508.15L307.05 501.34H327.56L335.13 508.67L335.77 509.3L351.96 524.81L359.27 575.53C351.696 578.186 343.862 580.036 335.9 581.05C330.959 581.685 325.982 582.003 321 582C318.49 582 315.99 581.92 313.52 581.76C311.36 581.62 309.22 581.43 307.1 581.17Z" fill="#CBCBCB"/>
<path id="Vector_23" d="M271.27 570.82C269.1 569.8 266.973 568.71 264.89 567.55C264.68 548.35 264.54 535.6 264.54 535.6L266.98 534.11C267.009 534.095 267.039 534.082 267.07 534.07L294.76 517.25L300.57 507.81L300.6 508.15L302.31 528.05C307.46 545.629 311.208 563.589 313.52 581.76C311.36 581.62 309.22 581.43 307.1 581.17C303.69 580.76 300.32 580.21 297 579.5C296.89 579.48 296.77 579.45 296.66 579.43C289.763 577.971 283.017 575.872 276.51 573.16C274.74 572.42 272.99 571.65 271.27 570.82Z" fill="#2F2E41"/>
<path id="Vector_24" d="M359.27 575.53C351.696 578.186 343.862 580.036 335.9 581.05C334.796 574.596 334.391 568.041 334.69 561.5C336.85 526.97 331.87 507.81 334.03 507.81L335.13 508.67L348.72 519.41L366.61 525.97H366.62L378.93 530.48L381.1 531.28V532.31C381.11 535.87 381.13 548.33 381.31 565.11C378.85 566.61 376.333 568.02 373.76 569.34C372.2 570.14 370.63 570.9 369.03 571.62C368.63 571.8 368.22 571.99 367.81 572.16C365.02 573.4 362.17 574.53 359.27 575.53Z" fill="#2F2E41"/>
<path id="Vector_25" d="M293.308 476.79C293.308 476.79 295.509 472.925 294.997 460.013C294.485 447.102 314.146 454.404 330.575 453.173C347.004 451.941 343.527 474.729 343.527 474.729C343.527 474.729 344.712 473.374 347.249 462.376C349.787 451.378 344.025 440.418 344.025 440.418C342.328 428.861 333.183 432.565 333.183 432.565C337.587 434.28 336.742 437.946 336.742 437.946C333.014 431.409 323.868 435.113 323.868 435.113C311.671 427.46 299.31 437.539 299.31 437.539C284.575 440.883 293.216 452.601 293.216 452.601C278.398 460.089 293.308 476.79 293.308 476.79Z" fill="#2F2E41"/>
<path id="Vector_26" d="M252.32 559.49C252.7 550.7 252.87 545.03 252.67 544.24C251.64 540.12 265.7 534.6 266.98 534.11C267.009 534.095 267.039 534.081 267.07 534.07L269.93 535.6L271.27 570.82C269.1 569.8 266.973 568.71 264.89 567.55C260.53 565.138 256.331 562.446 252.32 559.49V559.49Z" fill="#2F2E41"/>
<path id="Vector_27" d="M381.31 565.11C378.85 566.61 376.333 568.02 373.76 569.34C372.2 570.14 370.63 570.9 369.03 571.62C368.63 571.8 368.22 571.99 367.81 572.16L363.31 527.73L365.94 525.81C365.94 525.81 366.18 525.87 366.61 525.97H366.62C368.73 526.49 375.21 528.21 378.93 530.48C379.76 530.951 380.496 531.571 381.1 532.31C381.468 532.751 381.65 533.317 381.61 533.89C381.49 535.05 383.49 546.05 386.45 561.78C384.77 562.94 383.057 564.05 381.31 565.11Z" fill="#2F2E41"/>
<path id="Vector_28" d="M321 608.421C335.6 608.421 347.436 596.585 347.436 581.984C347.436 567.384 335.6 555.548 321 555.548C306.4 555.548 294.564 567.384 294.564 581.984C294.564 596.585 306.4 608.421 321 608.421Z" fill="#6C63FF"/>
<path id="Vector_29" d="M318.481 593.144L310.568 582.97L315.17 579.391L318.916 584.208L331.573 570.848L335.805 574.857L318.481 593.144Z" fill="white"/>
</g>
</g>
<defs>
<clipPath id="clip0">
<rect width="642" height="608.421" fill="white"/>
</clipPath>
</defs>
</svg>
